<svg xmlns="http://www.w3.org/2000/svg" fill="none" viewBox="0 0 32 32">
  <g fill="#362f4f" clip-path="url(#a)">
    <path d="M6.804 30.164c-.176-.161-.444-.223-.701-.301-.388-.119-.749-.276-.72-.87a.68.68 0 0 0-.677-.676 1 1 0 0 1-.262-.038.93.93 0 0 1-.679-.902.64.64 0 0 0-.167-.455.7.7 0 0 0-.513-.208c-.337-.002-.676.207-.693.625a1 1 0 0 0 .005.12c.02.157.078.272.163.36.175.181.462.245.734.328.386.118.743.276.714.865a.694.694 0 0 0 .675.682 1.2 1.2 0 0 1 .306.05c.381.122.624.45.636.892.002.19.066.34.167.447a.7.7 0 0 0 .522.214c.346 0 .692-.226.685-.673a.62.62 0 0 0-.195-.46M6.318 18.351A.69.69 0 0 0 7 17.663c.007-.454-.348-.678-.7-.672-.242.004-.484.118-.601.343a.7.7 0 0 0-.074.322q.003.082-.003.153v.011a1 1 0 0 1-.036.178c-.122.387-.508.472-.867.58-.23.068-.45.145-.582.316a.6.6 0 0 0-.12.294l-.009.084a.699.699 0 0 0 .674.7c.667-.036.784.422.913.86.067.227.137.449.288.594l.013.012c.085.076.195.13.342.147a1 1 0 0 0 .133.005c.43-.025.634-.395.61-.745a.8.8 0 0 0-.03-.168.62.62 0 0 0-.63-.462c-.622.002-.928-.486-.915-.964.012-.456.315-.901.912-.9M12.666 31.288c.258.089.55.143.76.287a.9.9 0 0 1 .255.425h1.374a.47.47 0 0 0-.196-.267.7.7 0 0 0-.5-.175c-.179-.043-.36-.087-.506-.181a1.03 1.03 0 0 1-.33-.473c-.037-.127-.052-.26-.07-.397a.6.6 0 0 0-.293-.468c-.208-.17-.454-.15-.659-.03a.63.63 0 0 0-.409.569c-.05.284.088.58.574.71M15.485 31.063a.63.63 0 0 0 .534.252c.432.007.795.3.895.685h1.434a.85.85 0 0 1 .322-.484c.326-.24.809-.24 1.139-.014a.82.82 0 0 1 .34.498h1.445l.006-.019c.124-.403.45-.66.872-.666h.002c.472.007.697-.371.678-.733a.7.7 0 0 0-.23-.496.64.64 0 0 0-.432-.149c-.688.013-.647.734-.883 1.21-.122.246-.319.427-.729.411h-.008c-.295.013-.481-.073-.609-.21-.168-.183-.235-.458-.314-.717-.064-.21-.136-.41-.279-.54a.6.6 0 0 0-.404-.153h-.014c-.222-.003-.365.067-.464.179a.75.75 0 0 0-.226.526v.008c-.052.2-.102.407-.208.569a.99.99 0 0 1-.928.315.97.97 0 0 1-.56-.413c-.084-.156-.128-.343-.175-.522a.6.6 0 0 0-.24-.525c-.11-.107-.27-.164-.52-.134a.63.63 0 0 0-.447.244.62.62 0 0 0-.154.465c.007.158.065.3.157.413M25.717 20.215c-.558-.008-.766.535-.627.94l.006.016.001.003.01.024v.003a.62.62 0 0 0 .317.333l.029.012.003.001.01.004.006.002.017.006.01.003.007.002.01.003.007.002.008.002.01.002.006.002.012.002.005.001.014.003h.005l.013.003h.008q.006.002.011.002l.008.001.011.002.02.001h.01l.01.001h.033l.008.001h.055l.021-.002.024-.003h.001l.019-.002h.004l.014-.003h.005l.014-.003h.004l.014-.004.006-.001.012-.003.006-.002q.006 0 .011-.003h.005l.012-.005.004-.001.019-.006.01-.004.005-.002.012-.004.004-.002.012-.005h.001l.03-.015.029-.016a.6.6 0 0 0 .238-.258l.002-.005.005-.01.003-.006.008-.02.002-.003c.173-.411-.028-1-.61-.99"/>
    <path d="M32 2.166V.798c-.256.07-.376.269-.462.504-.116.32-.168.704-.408.92-.124.112-.299.179-.558.168h-.024c-.42.024-.56.317-.666.648-.068.214-.122.444-.227.626a.67.67 0 0 1-.253.26.8.8 0 0 1-.454.086 1 1 0 0 1-.13-.008.85.85 0 0 1-.728-.62 1.03 1.03 0 0 1 .153-.913c.151-.193.389-.325.715-.323a.7.7 0 0 0 .442-.167.7.7 0 0 0 .238-.523v-.002a.94.94 0 0 1 .27-.654.94.94 0 0 1 .688-.276.69.69 0 0 0 .64-.524h-1.36a.8.8 0 0 1-.042.203c-.092.254-.312.37-.56.456-.31.107-.663.165-.86.384a.63.63 0 0 0-.15.429.93.93 0 0 1-.914.917.8.8 0 0 0-.268.05c-.25.102-.352.342-.433.605-.075.243-.132.504-.273.694-.125.169-.317.28-.647.272h-.04a.63.63 0 0 0-.557.332.76.76 0 0 0 .088.835c.11.126.275.21.492.21.16.002.305-.05.42-.139a.72.72 0 0 0 .272-.564c-.002-1.193 1.868-1.19 1.86.003v.001c.017.347-.1.545-.278.674-.19.137-.449.195-.69.27-.164.052-.32.113-.438.213a.6.6 0 0 0-.21.437l-.002.047a.94.94 0 0 1-.265.641.92.92 0 0 1-.657.28h-.002l-.023.001c-.37.01-.565-.138-.688-.348-.275-.47-.194-1.248-.911-1.272h-.015a.936.936 0 0 1-.915-.919 1 1 0 0 0-.01-.112c-.053-.351-.317-.583-.688-.59h-.034c-.689.004-.751-.552-.9-1.013-.104-.317-.247-.59-.663-.607h-.015l-.018-.001a.84.84 0 0 1-.73-.393 1.04 1.04 0 0 1-.142-.691c.058-.41.353-.78.89-.78.31-.105.475-.2.565-.286A.7.7 0 0 0 21.534 0h-1.367c-.054.398-.346.64-.682.717C19 .829 18.424.6 18.33 0h-1.36l.005.021c.089.316.331.494.696.505h.004c1.16.025 1.148 1.862-.027 1.863-.237.048-.407.126-.522.222a.52.52 0 0 0-.175.572.9.9 0 0 0 .47.537c.22.102.471.095.66-.117.103-.115.187-.291.238-.543.002-.485.313-.772.68-.861.532-.13 1.184.16 1.18.873v.008a.69.69 0 0 0 .694.687c.223.049.4.119.54.202a.9.9 0 0 1 .3.282.72.72 0 0 1 .073.6 1.2 1.2 0 0 1-.603.706c-.3.149-.648.146-.914-.141-.14-.152-.258-.383-.333-.712a.7.7 0 0 0-.266-.553.68.68 0 0 0-.425-.141.68.68 0 0 0-.442.163.7.7 0 0 0-.242.531c0 .45-.259.732-.585.845-.45.156-1.024-.009-1.212-.494a1 1 0 0 1-.063-.37.7.7 0 0 0-.063-.272c-.116-.243-.374-.338-.648-.421-.31-.094-.638-.173-.802-.435-.074-.119-.114-.274-.103-.485a.87.87 0 0 1 .069-.412c.12-.255.377-.358.649-.442.364-.112.753-.19.866-.554a.74.74 0 0 0-.026-.508.65.65 0 0 0-.498-.36c-.384-.063-.825.16-.818.666a.95.95 0 0 1-.3.68.92.92 0 0 1-.636.247 1 1 0 0 1-.136-.008.84.84 0 0 1-.715-.61 1.04 1.04 0 0 1 .144-.916c.148-.196.384-.33.708-.33.31-.105.475-.2.565-.286A.7.7 0 0 0 15.066 0h-1.367v.001l-.002.011c-.056.38-.33.615-.65.698-.38.098-.827-.017-1.052-.358A.9.9 0 0 1 11.862 0h-1.397c-.052.387-.328.626-.653.71-.368.095-.798-.01-1.03-.327A.9.9 0 0 1 8.628 0h-1.36c.084.329.328.515.701.526h.004c1.16.025 1.145 1.86-.022 1.863h-.029a.84.84 0 0 1-.417-.073c-.254-.127-.355-.396-.44-.674-.085-.277-.154-.563-.343-.73A.6.6 0 0 0 6.31.77h-.02a.634.634 0 0 0-.633.536.74.74 0 0 0 .175.648c.114.12.281.197.5.193a.8.8 0 0 1 .457.1c.21.128.305.361.38.607.088.284.152.584.344.76.098.09.23.148.415.154h.013c.454-.019.582-.356.692-.719.137-.45.246-.939.921-.902h.009a.83.83 0 0 1 .441.09c.242.134.334.402.416.676.08.266.148.539.33.703.102.09.237.147.43.152 1.185-.002 1.187 1.861 0 1.863a.7.7 0 0 0-.536.237.7.7 0 0 0-.159.358 1 1 0 0 0-.009.113c-.074.317-.187.541-.323.69-.266.293-.616.298-.917.15a1.2 1.2 0 0 1-.61-.714.72.72 0 0 1 .236-.775c.15-.127.367-.233.669-.302a.72.72 0 0 0 .538-.24.68.68 0 0 0 .165-.452.64.64 0 0 0-.192-.482c-.221-.211-.59-.244-.857-.096a.63.63 0 0 0-.326.596.93.93 0 0 1-.927.917h-.017a.8.8 0 0 1-.449-.095c-.228-.134-.322-.391-.403-.656-.087-.285-.157-.58-.362-.742a.63.63 0 0 0-.391-.127h-.001l-.07.005c-.398.044-.521.351-.622.686-.137.452-.233.954-.913.93h-.049a.635.635 0 0 0-.615.53c-.064.316.07.679.4.802a.7.7 0 0 0 .263.045c.242.004.46.095.622.244l.003.002h.001c.184.171.298.416.296.692v.002c.002.418-.226.691-.523.817a1.07 1.07 0 0 1-.721.034.85.85 0 0 1-.615-.847v-.01a.66.66 0 0 0-.11-.364c-.132-.193-.371-.276-.62-.35-.259-.078-.528-.148-.702-.326-.124-.128-.199-.31-.185-.59v-.083c.013-.538.387-.672.772-.786.407-.12.825-.219.845-.745v-.003a.94.94 0 0 1 .275-.658.94.94 0 0 1 .681-.27.62.62 0 0 0 .565-.349c.131-.263.098-.613-.1-.83a.63.63 0 0 0-.483-.199.65.65 0 0 0-.38.116c-.167.122-.248.324-.315.542-.076.243-.134.505-.275.694-.127.171-.322.284-.659.269l-.036.001a.687.687 0 0 0-.648.677v.002c0 .518-.33.816-.712.897a1.04 1.04 0 0 1-.622-.061C.76 5.396.53 5.114.532 4.68v-.002c-.109-.297-.205-.457-.29-.545A.7.7 0 0 0 0 4.027v1.364a.66.66 0 0 1 .433.185c.192.19.258.496.346.777.08.25.178.481.4.59a.7.7 0 0 0 .323.065c.29.009.545.155.707.376a.94.94 0 0 1 .182.562c.012.312-.086.5-.238.627-.192.16-.47.22-.728.301-.263.082-.503.186-.602.438a.8.8 0 0 0-.049.266v.001a.9.9 0 0 1-.171.523.9.9 0 0 1-.285.253 1 1 0 0 1-.318.117v1.374a.6.6 0 0 0 .292-.165c.281-.288.27-.83.51-1.159a.92.92 0 0 1 .675-.273q.183.001.328.055c.368.135.557.494.565.857.005.477-.304.96-.925.951a.69.69 0 0 0-.67.692v.002a.62.62 0 0 0 .443.626c.1.033.209.045.315.036.317-.026.615-.24.616-.646l-.002-.049c-.014-1.192 1.576-.543 1.619-1.6a.686.686 0 0 0-.67-.681.96.96 0 0 1-.443-.095c-.303-.152-.463-.466-.479-.788-.02-.478.276-.973.885-.98l.02-.002c.317-.016.507.083.633.24.3.374.243 1.071.678 1.304l.01.005.006.004q.119.06.29.069H4.7a.69.69 0 0 0 .683-.65c.08-.253.142-.527.29-.72.35-.308.934-.309 1.282 0 .149.19.21.463.289.714a.62.62 0 0 0 .344.557.67.67 0 0 0 .73-.022.62.62 0 0 0 .3-.564c-.007-.215-.08-.36-.192-.463-.27-.252-.766-.265-1.096-.466-.201-.123-.34-.317-.33-.678V7.94c-.003-.632.518-.939 1.009-.906.178.012.353.07.497.171.211.15.357.397.354.744a.7.7 0 0 0 .285.548.68.68 0 0 0 .408.132c.966-.052.48-1.431 1.365-1.604q.112-.022.257-.016a.7.7 0 0 0 .513-.243.68.68 0 0 0 .164-.426v-.005c-.002-.639.504-.95.988-.926a.91.91 0 0 1 .738.415.96.96 0 0 1 .133.509.63.63 0 0 0 .282.541.68.68 0 0 0 .795.013.62.62 0 0 0 .298-.564.7.7 0 0 0-.02-.17.68.68 0 0 0-.664-.522c-1.208.005-1.209-1.856-.017-1.863h.014c.425-.02.623.165.744.416.13.271.174.62.318.871a.62.62 0 0 0 .553.333h.002a.94.94 0 0 1 .659.27c.14.19.196.453.272.696a.693.693 0 0 0 .68.655h.002c.579-.023.74.32.856.696.122.399.195.835.659.913q.049.01.104.011a.68.68 0 0 0 .417-.14.7.7 0 0 0 .272-.55 1 1 0 0 1 .059-.352c.147-.389.55-.574.936-.552.443.026.866.323.864.891v.002a.93.93 0 0 1-.278.677c-.19.137-.451.194-.691.27a.6.6 0 0 0-.438.214.6.6 0 0 0-.207.436c-.075.24-.132.498-.268.687a.93.93 0 0 1-.654.28h-.002a.7.7 0 0 0-.495.202.7.7 0 0 0-.2.498v.001a.93.93 0 0 1-.28.654c-.187.134-.441.193-.677.267a.63.63 0 0 0-.556.33.65.65 0 0 0-.105.356.64.64 0 0 0 .204.494c.11.118.27.195.48.197a.67.67 0 0 0 .423-.142c.16-.112.272-.299.268-.562a.93.93 0 0 1 .364-.724c.354-.242.883-.225 1.208.055.152.19.211.463.29.715a.6.6 0 0 0 .212.444.6.6 0 0 0 .445.212c.24.074.498.132.686.27.138.186.198.442.271.68a.63.63 0 0 0 .336.57c.09.06.204.098.352.102a.64.64 0 0 0 .484-.194.64.64 0 0 0 .203-.49.64.64 0 0 0-.107-.37.62.62 0 0 0-.55-.323c-.235-.073-.488-.131-.675-.264a.94.94 0 0 1-.285-.65v-.003a.8.8 0 0 0-.043-.25c-.088-.258-.303-.424-.6-.45-.256-.081-.534-.14-.728-.297a1.03 1.03 0 0 1 .003-1.281c.19-.152.463-.213.715-.292a.68.68 0 0 0 .624-.494l.001-.005.007-.029.003-.01a1 1 0 0 0 .018-.156c0-.215.059-.391.157-.529.19-.268.528-.391.853-.369.438.032.852.331.85.898.02.644.63.651 1.095.833h.001l.006.003a1 1 0 0 1 .298.175l.01.01.003.002c.13.124.212.305.203.588v.018c.026.554.49.633.915.764.21.065.41.143.543.296.102.12.165.284.16.524v.036c.002.395-.196.661-.464.798a1.05 1.05 0 0 1-.605.1c-.412-.055-.787-.35-.791-.887v-.001a.7.7 0 0 0-.053-.274c-.094-.24-.308-.397-.592-.422-.243-.075-.506-.132-.697-.273-.17-.229-.222-.562-.326-.84-.158-.483-.47-.589-.755-.503a.62.62 0 0 0-.52.459c-.106.223-.1.48.117.672a.64.64 0 0 0 .54.24c.254.004.482.109.646.277.136.188.194.444.268.683.015.21.096.348.213.447a.6.6 0 0 0 .442.21c.237.073.491.13.679.265.17.165.276.397.28.657v.001c.018.512.399.624.786.736.258.076.52.151.678.345l.011.013c.095.122.15.29.142.529v.006c.022.477.36.603.722.71.279.082.571.153.743.363.101.124.16.296.152.547v.002c.022.45.33.588.671.694.299.092.622.16.804.388.096.121.152.288.143.528v.021c-.003.55-.394.848-.817.892-.183.018-.37-.01-.536-.084-.288-.13-.507-.402-.507-.816v-.001c.014-.896-1.381-.896-1.375-.007v.003a.69.69 0 0 0 .66.691c.247.077.513.136.702.283.306.348.31.937.01 1.29-.192.153-.465.214-.718.294a.685.685 0 0 0-.654.687v.004c-.002.57-.418.87-.856.9a.99.99 0 0 1-.76-.268.88.88 0 0 1-.243-.635.68.68 0 0 0-.646-.688c-.253-.08-.527-.141-.72-.292-.301-.35-.304-.932-.005-1.282.191-.153.465-.213.718-.293a.686.686 0 0 0 .653-.682v-.009a.68.68 0 0 0-.649-.684c-.243-.076-.506-.134-.696-.275-.14-.19-.197-.453-.273-.695a.62.62 0 0 0-.337-.552.67.67 0 0 0-.353-.1.63.63 0 0 0-.487.2.64.64 0 0 0-.197.48.67.67 0 0 0 .097.35.62.62 0 0 0 .56.347c.252.08.525.142.715.292.308.36.295.966-.031 1.31-.325.294-.865.316-1.223.065a.96.96 0 0 1-.36-.742.62.62 0 0 0-.265-.538.688.688 0 0 0-.825-.013.62.62 0 0 0-.284.543v.002c-.07.329-.18.561-.315.715-.247.2-.599.255-.905.166a1.2 1.2 0 0 1-.631-.727 1 1 0 0 1-.01-.132.83.83 0 0 1 .081-.453.9.9 0 0 1 .27-.264c.182-.103.41-.156.621-.225a.687.687 0 0 0 .646-.683.95.95 0 0 1 .276-.667c.188-.137.445-.195.684-.269a.62.62 0 0 0 .552-.332c.063-.093.1-.21.105-.365a.63.63 0 0 0-.192-.478.63.63 0 0 0-.488-.202.7.7 0 0 0-.424.14.63.63 0 0 0-.27.552.95.95 0 0 1-.375.744c-.363.241-.903.208-1.223-.092-.287-.321-.314-.852-.08-1.21a.94.94 0 0 1 .742-.377.63.63 0 0 0 .506-.211.76.76 0 0 0 .134-.716.62.62 0 0 0-.629-.45h-.002a.685.685 0 0 0-.69.657c-.074.242-.133.503-.273.692-.19.14-.45.197-.691.273a.685.685 0 0 0-.654.69.94.94 0 0 1-.282.665c-.189.135-.445.191-.683.265a.686.686 0 0 0-.652.687v.008a.83.83 0 0 1-.096.46c-.132.226-.383.32-.644.398-.27.082-.55.148-.72.332a.62.62 0 0 0-.156.4v.021c-.001.367.288.668.655.69.242.074.502.131.691.271.139.19.196.45.27.691.01.27.149.456.335.555a.66.66 0 0 0 .695.007.62.62 0 0 0 .344-.556c.076-.241.135-.502.27-.692a.92.92 0 0 1 .66-.276h.002q.084-.004.156.002c.55.044.636.52.769.946.106.341.241.649.668.672l.029.001h.003a.687.687 0 0 0 .676-.652c.08-.251.139-.524.288-.716.353-.307.949-.306 1.297.005.326.344.337.952.03 1.313-.19.152-.465.214-.717.294a.687.687 0 0 0-.654.685.66.66 0 0 0 .095.366c.113.182.31.283.518.303.367.036.762-.18.762-.66v-.004a.95.95 0 0 1 .376-.751c.36-.237.892-.21 1.212.08.324.346.33.953.02 1.312-.192.15-.464.21-.714.29a.687.687 0 0 0-.652.68c.018.402.256.557.545.66.388.138.866.181 1.022.595a.9.9 0 0 1 .05.387.65.65 0 0 0 .132.402l.004.005.004.005a.69.69 0 0 0 .504.243c.357.02.73-.198.73-.657v-.002a.95.95 0 0 1 .279-.676c.19-.137.452-.193.693-.268a.6.6 0 0 0 .433-.21.6.6 0 0 0 .21-.432c.08-.253.138-.528.286-.722.348-.31.933-.313 1.284-.008.16.206.221.506.312.773.15.545.474.676.77.596a.62.62 0 0 0 .533-.454c.11-.222.106-.48-.107-.676a.62.62 0 0 0-.523-.243.95.95 0 0 1-.44-.097c-.324-.167-.482-.524-.47-.874.016-.448.311-.884.879-.892h.017a.85.85 0 0 1 .433.07c.378.187.415.692.572 1.076.102.251.256.45.594.473l.03.002a.94.94 0 0 1 .737.364c.243.355.219.888-.068 1.214-.19.148-.459.208-.707.287a.687.687 0 0 0-.652.683v.006a.69.69 0 0 0 .655.685c.25.078.52.137.71.286.307.35.303.942-.005 1.293-.19.148-.458.208-.705.287a.63.63 0 0 0-.558.343.665.665 0 0 0 .045.762c.11.158.292.269.546.271h.004c.328.075.558.191.71.33.19.256.238.616.141.923a1.2 1.2 0 0 1-.72.605 1 1 0 0 1-.134.006.86.86 0 0 1-.452-.088.9.9 0 0 1-.293-.326c-.084-.171-.13-.374-.19-.563a.6.6 0 0 0-.208-.431.6.6 0 0 0-.434-.21c-.254-.08-.53-.14-.722-.294a1.016 1.016 0 0 1 .008-1.29c.192-.146.463-.206.712-.284a.687.687 0 0 0 .647-.697.62.62 0 0 0-.215-.497.7.7 0 0 0-.436-.165c-.36-.017-.732.207-.724.676v.001c-.003.582-.438.883-.886.902-.305.01-.617-.109-.803-.356a.9.9 0 0 1-.17-.553.62.62 0 0 0-.258-.539.68.68 0 0 0-.431-.148.63.63 0 0 0-.493.2.63.63 0 0 0-.193.485.68.68 0 0 0 .142.42c.11.162.292.275.547.273.331-.002.571.136.72.338.133.182.194.416.183.646-.024.447-.325.879-.898.88h-.02c-.23.006-.394-.047-.513-.139-.27-.206-.32-.606-.439-.938-.102-.29-.257-.53-.656-.544h-.002c-.24.006-.406-.05-.528-.145-.256-.2-.311-.575-.42-.897-.1-.305-.25-.562-.662-.579h-.003a.94.94 0 0 1-.665-.285c-.135-.191-.19-.45-.265-.69a.6.6 0 0 0-.21-.434.6.6 0 0 0-.434-.208c-.244-.077-.508-.136-.7-.277-.14-.192-.197-.455-.272-.699a.68.68 0 0 0-.679-.647h-.067a.8.8 0 0 1-.373-.08c-.291-.15-.376-.482-.47-.8-.11-.372-.231-.725-.711-.741h-.004a.7.7 0 0 0-.317.082c-.226.128-.313.385-.392.653-.076.258-.146.527-.323.7-.124.12-.3.193-.568.186h-.018a.7.7 0 0 0-.483.2.7.7 0 0 0-.2.55.77.77 0 0 1-.116.434.7.7 0 0 1-.281.24c-.336.172-.801.194-1.05.447a.62.62 0 0 0-.172.429v.002a.693.693 0 0 0 .655.694c.24.074.5.13.688.268.14.19.199.452.275.696a.62.62 0 0 0 .35.564.7.7 0 0 0 .347.094c.21-.001.37-.08.48-.201.12-.111.2-.274.197-.485a.7.7 0 0 0-.14-.422.62.62 0 0 0-.536-.27h-.002a.96.96 0 0 1-.752-.373c-.24-.36-.215-.894.074-1.216.345-.326.952-.336 1.31-.025.15.192.21.465.29.717a.69.69 0 0 0 .674.654h.012a.95.95 0 0 1 .662.275c.138.19.195.45.27.691a.61.61 0 0 0 .21.44.6.6 0 0 0 .439.213c.242.074.503.13.693.27.14.187.198.446.273.688a.63.63 0 0 0 .318.55.676.676 0 0 0 .773-.018.63.63 0 0 0 .283-.558v-.001a.94.94 0 0 1 .346-.723c.351-.256.89-.247 1.22.036.154.191.215.467.296.722.016.213.099.353.22.451a.6.6 0 0 0 .433.203c.247.076.513.133.703.279.31.348.315.942.012 1.296-.193.159-.47.216-.725.296-.295.031-.494.174-.59.421l-.006.016h1.342a.65.65 0 0 1 .207-.375c.195-.172.486-.23.752-.312a1.2 1.2 0 0 0 .423-.205.62.62 0 0 0 .214-.436l.004-.046a.95.95 0 0 1 .26-.646.93.93 0 0 1 .679-.286h.004c.357 0 .607.166.75.401a1 1 0 0 1 .132.375c.073.515-.225 1.094-.895 1.088h-.001c-.29.096-.449.185-.538.265A.7.7 0 0 0 26.7 32h1.35a.85.85 0 0 1 .322-.485c.327-.238.809-.239 1.139-.014a.82.82 0 0 1 .34.499h1.446c.105-.357.369-.61.703-.67v-1.41a.87.87 0 0 1-.707-.71c-.095-.473.146-1.016.707-1.117v-1.415a.9.9 0 0 1-.447-.227l-.007-.006-.008-.008a.9.9 0 0 1-.244-.463c-.098-.474.143-1.021.706-1.122v-1.418l-.01-.007a1 1 0 0 1-.335-.14.8.8 0 0 1-.215-.205 1.1 1.1 0 0 1-.186-.605.64.64 0 0 0-.14-.36c-.129-.153-.327-.23-.538-.296-.28-.087-.582-.152-.766-.349-.116-.124-.186-.301-.172-.57 0-.206.06-.39.169-.538.166-.23.445-.376.787-.393.44-.029.57-.355.677-.708.122-.402.215-.837.7-.903l.029-.002v-1.36a.69.69 0 0 0-.503.653v.008c0 .603-.454.905-.913.911a1 1 0 0 1-.455-.097.85.85 0 0 1-.49-.784l-.001-.02-.001-.025c-.01-.234.046-.398.142-.518.188-.233.53-.3.838-.4h.002l.004-.002q.121-.038.231-.09.002 0 .005-.002l.01-.005c.217-.107.377-.27.386-.59v-.001c-.024-.688-.757-.64-1.228-.885-.238-.125-.41-.324-.39-.731v-.002c-.015-.34.102-.534.28-.66.187-.135.443-.194.68-.269.229-.071.44-.158.559-.34a.66.66 0 0 0 .099-.354.63.63 0 0 0-.208-.495.76.76 0 0 0-.831-.086.62.62 0 0 0-.336.595.935.935 0 0 1-.921.924h-.027a.683.683 0 0 0-.669.7.85.85 0 0 1-.295.677c-.355.299-.946.289-1.29-.023a.85.85 0 0 1-.274-.667c-.013-.319.087-.51.244-.638.191-.156.467-.215.722-.295.28-.088.534-.2.62-.49l.015-.06v-.003l.008-.043q0-.007.002-.016l.003-.037v-.001l.003-.043v-.006a.93.93 0 0 1 .963-.92.68.68 0 0 0 .65-.642l.002-.007.002-.045v-.004a.85.85 0 0 1 .307-.687 1 1 0 0 1 .634-.211c.462.003.92.302.918.9a.7.7 0 0 0 .15.435.7.7 0 0 0 .353.228v-1.367q-.002 0-.005-.003a1 1 0 0 1-.338-.14.8.8 0 0 1-.226-.22 1.1 1.1 0 0 1-.177-.592c-.038-.44-.367-.558-.719-.66-.43-.125-.893-.226-.896-.866a1 1 0 0 1 .155-.578.9.9 0 0 1 .77-.383.95.95 0 0 1 .814.44 1.02 1.02 0 0 1 .136.61c.027.152.1.278.21.372a.8.8 0 0 0 .276.146V7.233a.87.87 0 0 1-.539-.33 1.005 1.005 0 0 1-.024-1.137.84.84 0 0 1 .563-.36V3.991a.858.858 0 0 1-.582-.392 1.005 1.005 0 0 1 .019-1.074.84.84 0 0 1 .563-.36M7.138 6.723l-.002.006-.007.014-.005.012-.004.008-.01.02a.83.83 0 0 1-.358.37v.001l-.02.01h-.001l-.017.008-.004.002-.016.007-.005.002-.014.006q-.005 0-.008.003l-.012.004-.01.004-.013.004-.01.004-.013.003-.01.004-.013.003-.01.003-.013.003-.012.003-.011.002-.013.003-.012.002-.013.003-.014.002-.012.002-.017.002h-.008q-.01.002-.02.003h-.006l-.02.002h-.007l-.023.002H6.25l-.017-.001h-.009l-.018-.002-.01-.001-.016-.002-.01-.001-.016-.002-.01-.002-.015-.002-.011-.002-.014-.003-.01-.002q-.008 0-.015-.003l-.01-.002-.014-.004-.007-.002-.017-.004-.006-.002-.017-.005-.005-.002-.018-.006-.004-.001-.018-.007H5.96a.83.83 0 0 1-.47-.467l-.003-.005-.012-.031-.002-.004c-.204-.552.073-1.307.839-1.298.784-.014 1.058.78.826 1.336m4.484-4.44-.018.01H11.6l-.037.018-.004.002-.015.007-.007.002-.014.006-.007.003-.014.005-.009.003-.011.004-.011.004q-.006 0-.011.003l-.013.004-.01.002-.013.004-.01.002-.014.004-.011.002-.014.003-.01.002-.014.002-.011.002-.015.002-.014.002-.011.002-.017.001-.01.001-.018.002h-.008l-.021.001h-.006l-.056.001H11.1l-.019-.002h-.01l-.016-.002h-.008l-.019-.003h-.008l-.017-.003-.01-.001-.016-.003-.01-.002-.015-.003-.008-.001-.016-.004-.008-.002-.016-.004-.006-.001-.018-.005-.005-.001-.018-.006-.004-.001-.041-.015h-.002a.83.83 0 0 1-.471-.467l-.003-.008-.005-.013-.008-.02c-.204-.552.075-1.306.84-1.296.784-.014 1.057.781.824 1.337v.002l-.008.018-.005.01-.004.01-.01.019a.83.83 0 0 1-.339.36m.794 1.636-.003-.001-.018-.007-.007-.003-.013-.005-.017-.008h-.003a.83.83 0 0 1-.446-.467l-.007-.018-.001-.004-.006-.017q0-.003-.002-.006l-.004-.016-.002-.007-.005-.016-.002-.008-.003-.014-.003-.01-.003-.014-.002-.01-.002-.014-.002-.011-.003-.015-.001-.01-.002-.016-.002-.01-.001-.015-.001-.012-.002-.016v-.01l-.001-.018v-.01l-.001-.023v-.092l.002-.023v-.006l.002-.021v-.007l.002-.02.002-.008q0-.008.002-.017l.001-.01.003-.016.002-.011.002-.013.003-.014.002-.01.003-.013.003-.012.003-.012.004-.012.003-.01.003-.013.003-.009.005-.014.003-.007.005-.015.003-.007.006-.015.003-.006.006-.015.003-.006.007-.015.001-.004.009-.017.022-.04a.83.83 0 0 1 .349-.32l.004-.002.015-.007.009-.004.01-.006.014-.005.007-.003c.555-.233 1.347.042 1.333.827.01.767-.744 1.046-1.294.84m6.45 3.234-.01-.004-.01-.004-.018-.008h-.002a.83.83 0 0 1-.463-.508v-.002l-.006-.019-.001-.004-.007-.024-.005-.02v-.004l-.005-.018-.001-.006-.003-.02-.002-.005-.002-.019-.002-.007-.002-.018-.001-.008-.002-.019V6.43l-.003-.023v-.004l-.001-.023v-.004l-.001-.027v-.094l.001-.017.001-.011.001-.016.002-.014v-.012l.003-.017.001-.01.003-.016.001-.009.003-.015q0-.004.002-.01l.003-.015q0-.004.002-.01l.003-.015.002-.008.004-.015.003-.009q0-.008.004-.014l.002-.01.005-.012.003-.01.004-.012.004-.01.004-.011.005-.011.003-.01.006-.012.003-.008.006-.013.003-.006.007-.014.002-.004.01-.016v-.003l.01-.017a.83.83 0 0 1 .348-.322l.005-.002.015-.007.009-.004.01-.005.015-.007.005-.002c.555-.234 1.349.038 1.336.823.012.777-.76 1.055-1.312.837m-.655 11.251a.87.87 0 0 1-.56.19.72.72 0 0 0-.513.208.73.73 0 0 0-.194.504.87.87 0 0 1-.19.56c-.184.224-.477.33-.767.323-.458-.014-.907-.315-.902-.901l-.002-.068c.001-.188.045-.328.117-.436.158-.237.456-.318.744-.404.292-.086.574-.177.696-.439a.7.7 0 0 0 .054-.19 1 1 0 0 0 .008-.103.933.933 0 0 1 .928-.918c.61-.01.913.469.907.944a.95.95 0 0 1-.326.73m6.713 6.148-.002.004-.007.015-.006.013-.003.007-.008.016-.002.004a.83.83 0 0 1-.358.368l-.003.002-.014.007-.006.003-.013.006-.008.004-.013.005-.009.004-.01.004-.021.008-.013.005-.009.003-.013.004-.01.003-.014.004-.008.002-.015.004-.009.002-.015.004-.01.002-.015.003-.01.002-.015.003h-.008q-.009.003-.017.003l-.01.002-.016.002-.014.001-.012.001-.015.001-.012.001-.02.001h-.118l-.027-.002h-.004q-.01 0-.023-.002h-.007l-.019-.002-.008-.002-.018-.002-.007-.001-.018-.003-.006-.001-.019-.004-.007-.001-.017-.004-.005-.001-.02-.005-.004-.001-.019-.005-.004-.001-.02-.006-.002-.001-.02-.007h-.001a.83.83 0 0 1-.484-.457l-.002-.003-.007-.017-.003-.009-.005-.011-.006-.017-.002-.003c-.202-.553.078-1.306.844-1.295.782-.012 1.054.784.82 1.34m-7.657.433h-.002l-.018-.007-.012-.006q-.004 0-.008-.003a.83.83 0 0 1-.474-.494v-.002l-.007-.02-.001-.003-.006-.019-.001-.004-.005-.018-.002-.006-.003-.016-.002-.008-.004-.016q0-.005-.002-.008l-.002-.016-.002-.01-.003-.016-.001-.009-.002-.016-.001-.01-.002-.017-.001-.009-.002-.02v-.007l-.002-.05v-.091l.002-.024v-.01l.002-.017v-.012l.002-.014.002-.012q0-.007.002-.014l.002-.014q0-.006.002-.012l.002-.014.002-.01q0-.008.003-.014l.002-.011.003-.014.003-.01.003-.012.003-.012.004-.011.003-.012.005-.013.003-.01.004-.012.004-.01.004-.01.004-.012.004-.007.006-.014.003-.007.017-.035v-.002l.01-.018.011-.02a.83.83 0 0 1 .349-.32l.005-.003.014-.007.01-.005.01-.004.02-.009c.555-.233 1.348.041 1.334.826.01.768-.743 1.047-1.294.842m4.528 2.397c.01.61-.468.915-.94.91a.95.95 0 0 1-.728-.327.88.88 0 0 1-.191-.565.72.72 0 0 0-.199-.504l-.003-.003a.73.73 0 0 0-.502-.197.88.88 0 0 1-.563-.192.96.96 0 0 1-.326-.751c.005-.465.308-.926.902-.92h.008q.036 0 .07.003a.926.926 0 0 1 .855.915 1 1 0 0 0 .01.107.7.7 0 0 0 .053.185c.126.27.422.358.723.447.247.073.497.146.658.32.116.125.185.303.173.572m7.16-12.272c.774-.01 1.047.766.827 1.32v.001l-.011.026-.006.013-.005.011-.004.01-.007.013-.002.006a.83.83 0 0 1-.322.348l-.016.008-.004.003-.016.009-.004.001-.014.008-.006.003-.013.005-.009.004-.01.005-.01.004-.01.004-.013.005-.009.003-.013.005-.023.007-.007.003-.016.004-.008.002-.016.004-.009.003-.015.003-.008.002-.016.003-.008.002-.017.003h-.008q-.009.003-.017.003l-.009.001-.017.003h-.013l-.014.002-.014.001-.03.002h-.093q-.027 0-.055-.002h-.002l-.024-.002h-.007l-.02-.003h-.005l-.02-.004h-.003l-.023-.004h-.005l-.02-.004-.006-.002-.018-.004-.007-.001-.017-.005-.006-.001-.018-.005h-.002l-.043-.015-.023-.008a.83.83 0 0 1-.47-.47l-.004-.008-.005-.012-.007-.018v-.002c-.202-.553.08-1.306.846-1.293m-6.033-7.956h-.001l-.04.02h-.002l-.017.008-.004.002-.015.005-.007.003-.014.005-.008.003-.014.005-.009.003-.014.004-.009.003-.014.004-.01.002-.012.003-.011.003-.014.003-.01.002-.014.003-.012.002-.014.002-.011.002-.015.002-.01.001-.017.002h-.01l-.02.002h-.007l-.024.002h-.121l-.02-.001-.01-.001-.017-.001-.01-.002-.016-.001-.012-.002-.014-.001-.013-.003-.012-.001-.012-.003-.013-.002-.011-.002-.013-.003-.012-.003-.012-.003q-.006 0-.011-.003l-.013-.003-.008-.003-.015-.004-.007-.002-.016-.006-.004-.001-.018-.007-.003-.001-.02-.008h-.001a.83.83 0 0 1-.441-.439l-.002-.003-.007-.016-.004-.01-.004-.01c-.219-.554.057-1.328.832-1.318.774-.014 1.05.762.833 1.317l-.008.02-.003.007-.006.013-.006.012q0 .004-.003.008l-.009.018v.001a.83.83 0 0 1-.359.37m8.552-2.463c.001.26-.09.52-.272.7a.85.85 0 0 1-.631.24l-.053.002a.6.6 0 0 0-.394.176c-.21.215-.256.586-.374.897-.116.31-.303.562-.792.545-.453-.003-.678.34-.678.686s.227.694.679.691c.3-.002.524.114.674.289.145.17.22.394.224.62.01.474-.29.956-.898.955-.494.014-.614.38-.726.76-.068.23-.133.466-.275.632-.127.147-.315.24-.62.228-.317.014-.509-.085-.636-.241-.127-.154-.19-.362-.252-.57-.094-.317-.182-.633-.473-.756a.7.7 0 0 0-.275-.053h-.008c-1.044.02-.688-1.201-1.27-1.537a.65.65 0 0 0-.267-.08l-.076-.004c-.595-.007-.89-.476-.886-.941.003-.466.305-.93.903-.922.22-.012.38.032.499.112.289.194.346.596.463.937.068.2.157.378.324.48a.67.67 0 0 0 .331.091h.013a.65.65 0 0 0 .34-.102q.002 0 .005-.003l.01-.006c.243-.174.306-.52.407-.837.063-.197.14-.384.286-.51.121-.106.29-.17.536-.163h.02a.7.7 0 0 0 .337-.092c.204-.125.29-.358.364-.606.082-.274.15-.565.343-.745.123-.115.298-.185.561-.177h.007a.8.8 0 0 0 .2-.03c.261-.078.379-.29.464-.535.11-.318.165-.692.408-.9.12-.1.284-.162.522-.157l.043.002c.592-.002.89.46.893.924"/>
    <path d="M25.757.77h-.002c-.453-.018-.768-.234-.903-.604A1 1 0 0 1 24.81.01l-.002-.01H23.39c-.058.087-.061.196-.102.307A.9.9 0 0 1 23.01.6c-.12.064-.289.121-.532.168a.63.63 0 0 0-.541.268.7.7 0 0 0-.143.418.7.7 0 0 0 .098.345.62.62 0 0 0 .56.346c.242.074.501.131.69.271.139.19.195.452.27.694.023.366.32.653.684.656l.016-.001a.7.7 0 0 0 .259-.06l.006-.003.01-.005c.263-.128.35-.414.436-.706.125-.432.245-.878.91-.846a.63.63 0 0 0 .465-.191.7.7 0 0 0 .18-.395h.001v-.001c.048-.369-.16-.776-.623-.79m-2.02 1.53-.005-.003-.015-.005-.014-.006-.006-.003-.02-.008a.83.83 0 0 1-.463-.508v-.002l-.007-.02v-.003l-.006-.02-.001-.004-.005-.02v-.004l-.005-.019-.001-.005-.004-.02v-.005l-.004-.02v-.006l-.004-.022v-.004l-.002-.02v-.006q-.002-.01-.003-.022V1.54l-.002-.083v-.066l.002-.016V1.36l.002-.013.002-.026.002-.017.001-.01.003-.016.001-.009.003-.017.002-.008.004-.018v-.006l.005-.016q0-.005.002-.008l.004-.017.002-.007.004-.015.003-.008.004-.013.003-.01.005-.012.003-.01.005-.011.004-.011.004-.009.005-.012.003-.008.007-.013.002-.005.008-.016.002-.004.009-.016V.998l.01-.018.02-.031a.84.84 0 0 1 .329-.29l.003-.002.016-.008.01-.004.01-.005.012-.005.008-.004c.554-.233 1.348.04 1.335.824.011.768-.741 1.048-1.292.844M18.115 9.063a.64.64 0 0 0-.475-.192.65.65 0 0 0-.365.104.62.62 0 0 0-.33.559c-.074.237-.134.492-.268.68a.93.93 0 0 1-.65.278l-.07.004c-.387.037-.521.315-.621.63-.094.293-.158.619-.368.813-.125.116-.303.185-.57.173h-.016c-.497-.003-.788-.335-.867-.718a1.07 1.07 0 0 1 .062-.634c.127-.288.395-.509.807-.511h.005a.685.685 0 0 0 .694-.654c.075-.242.131-.502.27-.692.188-.14.446-.2.686-.275a.62.62 0 0 0 .562-.337.65.65 0 0 0 .1-.356.63.63 0 0 0-.2-.492.63.63 0 0 0-.483-.192.68.68 0 0 0-.44.156.63.63 0 0 0-.25.54.94.94 0 0 1-.396.755c-.354.22-.863.19-1.178-.086-.149-.193-.21-.466-.288-.717a.68.68 0 0 0-.69-.648h-.001c-.886-.007-.888 1.39.01 1.377.31.005.576.15.743.374.24.366.206.914-.096 1.233-.324.288-.86.308-1.216.063a.95.95 0 0 1-.365-.738v-.001a.62.62 0 0 0-.274-.552.7.7 0 0 0-.414-.136.64.64 0 0 0-.484.196.63.63 0 0 0-.203.488.67.67 0 0 0 .101.353c.098.19.285.331.56.34.242.075.501.135.69.275a.95.95 0 0 1 .266.656v.001l.001.022a.6.6 0 0 0 .236.47c.456.354 1.407.19 1.381 1.1v.033q0 .056-.005.11c-.05.531-.493.797-.934.793s-.882-.28-.919-.827l-.002-.082c-.011-.288-.14-.447-.322-.552-.48-.28-1.326-.172-1.295-1.064v-.002a.63.63 0 0 0-.267-.548.68.68 0 0 0-.784-.032.63.63 0 0 0-.323.545c-.075.24-.134.497-.268.687a.92.92 0 0 1-.664.279h-.002c-.243.012-.412-.046-.534-.146-.246-.202-.307-.578-.418-.9-.105-.305-.255-.562-.656-.574h-.003a.687.687 0 0 0-.689.65c-.076.245-.133.509-.274.7-.189.139-.45.196-.69.27a.61.61 0 0 0-.558.345.7.7 0 0 0-.096.348c0 .209.077.368.194.479.11.124.273.206.487.206a.66.66 0 0 0 .354-.1.62.62 0 0 0 .339-.553c.077-.243.136-.506.274-.696a.91.91 0 0 1 .653-.272h.021c.21-.008.362.035.478.111.267.179.335.539.437.863.089.28.204.534.502.618a.8.8 0 0 0 .176.029.95.95 0 0 1 .662.266c.141.19.199.452.275.695.01.278.155.465.347.562.09.057.202.092.346.097a.68.68 0 0 0 .411-.142.63.63 0 0 0 .27-.54.96.96 0 0 1 .353-.739c.335-.24.834-.237 1.165.007a.95.95 0 0 1 .341.724v.003l.001.022c.015.216.1.358.224.459.207.169.524.223.803.321.103.036.2.078.286.134l.002.001.012.008c.181.125.302.316.29.653v.027q0 .079-.01.152c-.07.505-.505.755-.935.75-.462-.008-.92-.312-.915-.911a.68.68 0 0 0-.837-.668c-.427.093-.5.53-.624.924-.08.253-.183.488-.414.604a.83.83 0 0 1-.417.075h-.015a.83.83 0 0 1-.443-.085c-.312-.17-.381-.568-.495-.915-.092-.285-.215-.537-.527-.604a1 1 0 0 0-.178-.017c-.481.011-.692.44-.63.815.029.182.122.352.28.456a.67.67 0 0 0 .382.107h.016q.077 0 .146.01c.556.083.799.605.73 1.075-.06.41-.359.78-.891.778a.63.63 0 0 0-.539.255.68.68 0 0 0-.051.784c.099.188.285.33.56.338.237.073.492.131.68.267a.94.94 0 0 1 .275.66c.006.377.285.67.654.693.25.078.52.137.712.286.307.35.305.943-.004 1.294-.192.148-.465.207-.715.287a.6.6 0 0 0-.436.213.6.6 0 0 0-.209.433c-.075.242-.131.504-.27.695a.94.94 0 0 1-.666.277.63.63 0 0 0-.508.225.74.74 0 0 0-.152.552c.034.31.25.596.651.6h.002c.323.01.593.152.76.374.244.367.208.917-.102 1.236-.35.31-.944.306-1.294-.007-.149-.195-.206-.468-.285-.72a.6.6 0 0 0-.201-.42.6.6 0 0 0-.435-.217c-.244-.08-.51-.138-.703-.277a.92.92 0 0 1-.275-.652v-.002l-.001-.017c-.01-.294.078-.478.219-.603.241-.212.637-.255.946-.387a.77.77 0 0 0 .337-.245A.63.63 0 0 0 7 24.15a.93.93 0 0 1 .932-.939.62.62 0 0 0 .545-.272.7.7 0 0 0 .14-.422.63.63 0 0 0-.203-.493.63.63 0 0 0-.482-.19.68.68 0 0 0-.42.141.62.62 0 0 0-.27.547c0 .4-.2.666-.468.803a1 1 0 0 1-.448.106c-.47.004-.945-.302-.943-.914v-.003a.68.68 0 0 0-.646-.678c-.244-.077-.508-.134-.7-.276-.142-.19-.199-.453-.273-.696a.687.687 0 0 0-1.372 0c-.064.206-.116.427-.215.605a.9.9 0 0 1-.262.278.83.83 0 0 1-.46.087q-.067 0-.13-.008A1.2 1.2 0 0 1 .6 21.21a1.03 1.03 0 0 1 .155-.916c.152-.136.382-.25.708-.322a.687.687 0 0 0 .683-.655c.076-.24.133-.5.271-.69a.94.94 0 0 1 .66-.275.686.686 0 0 0 .686-.653c.076-.243.133-.506.274-.696.19-.142.452-.198.695-.274a.6.6 0 0 0 .437-.211.6.6 0 0 0 .21-.437c.075-.24.132-.5.268-.69a.93.93 0 0 1 .656-.28c.493.01.716-.402.675-.777a.68.68 0 0 0-.254-.474.64.64 0 0 0-.407-.127 1 1 0 0 0-.116.011c-.62.1-.535.86-.822 1.3a.65.65 0 0 1-.244.229l-.006.002a.86.86 0 0 1-.433.079.686.686 0 0 0-.687.652c-.074.239-.13.496-.264.686a.94.94 0 0 1-.669.283h-.001a.8.8 0 0 0-.218.039c-.518.177-.442.895-.73 1.3-.126.176-.32.293-.661.281h-.013l-.014.001a1 1 0 0 0-.145.023c-.615.158-.474.967-.828 1.37a.68.68 0 0 1-.467.223v1.383a.65.65 0 0 1 .428.181c.191.19.26.495.35.776.11.345.25.653.684.662a.59.59 0 0 0 .463-.205c.093-.108.153-.25.203-.402.106-.315.173-.674.415-.87.127-.103.302-.16.557-.144.394-.012.589.155.71.385.246.468.187 1.2.874 1.235h.02q.127.001.235.026a.82.82 0 0 1 .562.452c.19.39.112.923-.233 1.2a.88.88 0 0 1-.566.186.66.66 0 0 0-.466.17.67.67 0 0 0-.192.344c-.088.386.125.85.635.863h.063c.407-.003.595.188.712.44.218.473.183 1.16.871 1.181h.012c.668-.02.762.482.899.932.106.349.237.666.677.688h.02c.435-.015.575-.315.681-.653.08-.252.14-.524.29-.716.13-.165.325-.27.655-.251a.85.85 0 0 1 .635.25c.306.317.34.866.1 1.234-.144.223-.39.38-.736.38a.72.72 0 0 0-.543.25.67.67 0 0 0-.046.8c.121.171.33.255.554.326.277.088.578.155.766.342a.6.6 0 0 1 .174.344h1.344a.69.69 0 0 0-.603-.44c-.248-.08-.518-.14-.71-.286-.314-.35-.317-.944-.006-1.295.193-.148.465-.207.715-.286a.687.687 0 0 0 .634-.83.68.68 0 0 0-.67-.546h-.003c-1.2-.004-1.215-1.852-.01-1.863h.012l.024-.002a.63.63 0 0 0 .37-.134c.197-.16.267-.438.347-.71.108-.369.235-.727.712-.771q.058-.006.122-.005l.038.001a.64.64 0 0 0 .395-.133c.183-.147.257-.395.33-.647.112-.383.223-.774.705-.834h.005l.019-.002.01-.001.015-.002h.007a1 1 0 0 1 .127-.001h.026a.63.63 0 0 0 .625-.493.76.76 0 0 0-.118-.644.62.62 0 0 0-.517-.241.7.7 0 0 0-.337.086c-.228.134-.31.404-.392.682-.117.397-.23.808-.752.85a1 1 0 0 1-.132.002c-.412.01-.694.294-.702.71-.074.318-.188.542-.324.69-.252.194-.61.243-.916.149-.287-.14-.53-.42-.612-.72a1 1 0 0 1-.007-.134.93.93 0 0 1 .247-.638c.148-.125.364-.23.661-.3h.003a.65.65 0 0 0 .576-.288.76.76 0 0 0 .088-.608.64.64 0 0 0-.66-.481.94.94 0 0 1-.722-.367c-.24-.353-.224-.88.053-1.205.19-.152.458-.214.709-.292a.64.64 0 0 0 .561-.336.64.64 0 0 0 .1-.35.65.65 0 0 0-.095-.349.63.63 0 0 0-.56-.341c-.25-.08-.521-.142-.712-.293-.304-.356-.299-.952.014-1.299.321-.3.867-.329 1.23-.085.22.167.362.43.366.73a.65.65 0 0 0 .262.553.675.675 0 0 0 .782.046c.184-.1.32-.286.33-.558.074-.24.133-.497.27-.685.187-.14.445-.2.685-.274a.64.64 0 0 0 .56-.333.65.65 0 0 0 .103-.354.65.65 0 0 0-.1-.351.63.63 0 0 0-.554-.338c-.195-.062-.402-.113-.574-.203a.9.9 0 0 1-.315-.302.85.85 0 0 1-.074-.439q0-.075.01-.144c.084-.294.322-.565.604-.704.307-.096.665-.049.918.143.139.15.254.379.327.703a.72.72 0 0 0 .217.512c.122.118.287.19.47.19a.63.63 0 0 0 .547-.271.68.68 0 0 0 .14-.405.69.69 0 0 0-.163-.463.64.64 0 0 0-.535-.238c-.525-.004-.82-.367-.882-.772-.04-.262.018-.541.172-.752.149-.201.386-.34.714-.34h.01a.684.684 0 0 0 .682-.653c.074-.241.13-.5.269-.69.188-.142.448-.202.69-.278a.63.63 0 0 0 .557-.332c.063-.092.1-.21.104-.364a.63.63 0 0 0-.204-.489m-7.743 4.142-.003.006-.006.014-.005.012-.004.008-.008.018-.001.001a.83.83 0 0 1-.338.36l-.002.001-.018.01-.002.001-.02.01-.018.008-.003.002-.016.007-.006.002-.014.006-.007.003-.036.013-.01.003-.012.003-.01.004-.015.003-.009.003-.014.003-.01.003-.013.002-.011.003-.015.003q-.005 0-.01.002l-.015.002-.01.002-.018.002h-.008l-.02.003H9.66l-.021.002h-.006l-.023.002h-.122l-.02-.002h-.01l-.017-.002h-.01l-.016-.002-.01-.001-.016-.002-.01-.002-.016-.002-.01-.002-.014-.003-.01-.002-.015-.003-.01-.002-.014-.004-.007-.002-.017-.004-.006-.002-.017-.005-.005-.002-.018-.006h-.002l-.02-.008a.83.83 0 0 1-.476-.474l-.006-.013-.006-.016-.002-.004c-.204-.552.073-1.307.839-1.298.784-.014 1.058.78.826 1.336m.008 12.945v.001l-.009.019-.002.006-.006.014-.004.009-.005.01-.01.02a.83.83 0 0 1-.359.37v.001l-.018.009-.003.002-.017.007-.004.002-.015.007-.007.003-.014.005-.007.003-.014.005-.009.003-.012.004-.01.004-.012.003-.012.004-.01.003-.013.003-.012.003-.012.003-.013.003-.012.002-.01.002q-.008 0-.014.003l-.012.001-.014.002-.015.002-.01.002-.017.002h-.01l-.018.002H9.63l-.022.002h-.124l-.02-.002h-.009l-.017-.002h-.01l-.017-.003-.01-.001-.015-.002-.01-.002-.016-.002-.009-.002-.016-.002-.007-.002-.017-.004-.007-.001-.017-.005-.006-.001-.018-.005-.007-.002-.016-.005-.006-.002-.017-.005-.003-.002a.83.83 0 0 1-.492-.474l-.003-.007-.005-.013-.007-.017-.001-.004c-.204-.552.074-1.306.84-1.296.774-.013 1.05.762.833 1.317m-.01-6.46q0 .004-.003.008l-.005.012-.006.012-.003.008-.009.017-.001.003a.83.83 0 0 1-.377.378l-.005.002-.017.008-.004.002-.014.006q-.004 0-.007.003l-.012.004-.01.004-.012.005-.01.003-.012.004-.01.004-.012.003-.012.004-.01.002-.014.004-.008.002-.016.004-.007.001-.017.004-.009.001-.016.003-.011.002-.014.002-.013.002-.013.001-.014.002h-.012l-.017.002h-.01l-.027.002h-.116l-.022-.002h-.004l-.023-.002h-.004l-.027-.004-.021-.002-.008-.002-.017-.002-.01-.002-.015-.003-.007-.001-.018-.004-.005-.002-.019-.004-.004-.001-.02-.006h-.003l-.02-.007h-.001l-.021-.007h-.001a.83.83 0 0 1-.485-.458l-.001-.003-.007-.017-.003-.007-.005-.013-.007-.016-.001-.004c-.203-.552.078-1.306.844-1.294.782-.012 1.054.784.82 1.34"/>
    <path d="m3.724 14.213-.007-.025-.005-.017-.003-.008a.65.65 0 0 0-.158-.254l-.002-.001a.5.5 0 0 0-.08-.066q-.003 0-.005-.003l-.025-.016a.65.65 0 0 0-.257-.085h-.004a.8.8 0 0 0-.326.03c-.34.113-.416.486-.522.842-.088.29-.197.57-.486.687a.96.96 0 0 1-.431.055.8.8 0 0 1-.397-.086c-.31-.167-.383-.548-.488-.888-.077-.254-.174-.486-.407-.588A.6.6 0 0 0 0 13.752v1.37q.21.029.362.133a.8.8 0 0 1 .213.208 1.021 1.021 0 0 1-.002 1.16.85.85 0 0 1-.573.34v1.364a.8.8 0 0 0 .251-.113.66.66 0 0 0 .28-.542c-.017-.432.166-.633.416-.755.153-.074.33-.12.501-.172.134-.04.264-.084.375-.148a.61.61 0 0 0 .326-.525c.018-.574.38-.94.949-.962.521-.005.734-.502.626-.897M.38 7.504A.6.6 0 0 0 0 7.267v1.346a.7.7 0 0 0 .13-.042.3.3 0 0 0 .167-.107.7.7 0 0 0 .22-.525l.013-.053a.66.66 0 0 0-.15-.382M3.997 0a.82.82 0 0 1-.318.551 1.03 1.03 0 0 1-1.155.031A.84.84 0 0 1 2.16 0H.762C.705.374.41.665 0 .75v1.408c.245.037.46.178.6.378.107.151.17.336.174.537v.003c-.002.38.247.6.533.657a.77.77 0 0 0 .509-.07.62.62 0 0 0 .331-.618c-.006-.448.218-.634.501-.75.461-.187 1.08-.188 1.118-.825.005-.27.102-.5.265-.666.335-.25.899-.245 1.18-.529Q5.318.171 5.36 0zM1.096 2.298l-.005-.002-.016-.006-.01-.004-.01-.004-.02-.009A.814.814 0 0 1 .59 1.81v-.003l-.008-.02v-.002l-.006-.017-.006-.02-.003-.01-.004-.014-.002-.01-.004-.013-.002-.01-.003-.013-.002-.012-.003-.013-.002-.012-.002-.014-.002-.011-.001-.014-.002-.012-.001-.014-.002-.012v-.016l-.002-.011V1.51l-.001-.02v-.047l.002-.072v-.003q0-.012.002-.024V1.34l.002-.022.001-.005q0-.01.003-.02l.001-.01.003-.016.002-.01.002-.015.003-.012.002-.012.003-.011.003-.013.003-.01.004-.014.003-.01q0-.006.004-.013l.002-.007.005-.016.003-.008.005-.014.003-.007L.6 1.08l.002-.004.007-.017.001-.003.009-.018v-.001A.83.83 0 0 1 1 .657h.002l.018-.01q.002 0 .005-.002L1.038.64l.014-.006.006-.003c.555-.232 1.348.043 1.333.829.009.767-.745 1.044-1.295.839M5.212 31.806c-.28-.28-.84-.276-1.175-.523-.141-.191-.198-.455-.274-.699a.68.68 0 0 0-.692-.647h-.01c-.85.027-.78-.798-1.04-1.28a.59.59 0 0 0-.57-.34 1 1 0 0 0-.121.01c-.413.07-.59.466-.527.814.039.22.173.42.404.508q.125.048.288.046a.93.93 0 0 1 .753.431c.2.37.14.89-.154 1.192-.357.313-.946.287-1.29-.032-.142-.19-.2-.452-.273-.695A.68.68 0 0 0 0 29.955v1.372c.353.055.652.33.743.673h1.435a.85.85 0 0 1 .322-.484c.326-.24.808-.24 1.139-.014a.82.82 0 0 1 .34.498h1.358a.54.54 0 0 0-.125-.194M.38 26.95a.6.6 0 0 0-.38-.238v1.347a1 1 0 0 0 .126-.04.3.3 0 0 0 .167-.106.7.7 0 0 0 .224-.529l.013-.053a.66.66 0 0 0-.15-.381M.53 24.09a.66.66 0 0 0-.15-.38.6.6 0 0 0-.38-.238v1.346a.63.63 0 0 0 .375-.235.7.7 0 0 0 .155-.493M26.665 0c.04.17.13.296.248.38.122.1.278.155.45.145l.048-.019a.67.67 0 0 0 .517-.31.6.6 0 0 0 .075-.196zM8.576 32a.6.6 0 0 0-.217-.294.65.65 0 0 0-.368-.146.68.68 0 0 0-.495.15.63.63 0 0 0-.212.29zM32 20.238a.6.6 0 0 0-.366.255.7.7 0 0 0-.136.373l.013.048a.69.69 0 0 0 .235.522c.06.066.116.09.168.101q.04.017.086.03zM32 13.756a.6.6 0 0 0-.366.255.7.7 0 0 0-.136.373l.013.048c.003.195.079.39.235.522.06.066.116.09.168.101q.04.017.086.03zM14.316 28.281c-.336-.099-.681-.195-.803-.543l-.007-.018v-.002a1 1 0 0 1-.035-.178v-.011a1 1 0 0 1-.003-.154.62.62 0 0 0-.225-.506.72.72 0 0 0-.428-.155c-.334-.013-.678.181-.718.582a.8.8 0 0 0 .005.18.6.6 0 0 0 .124.3c.145.183.388.259.637.331.35.103.71.202.817.588v.003l.006.018.002.012.003.01.003.015.001.008.003.013.001.01.002.009.002.015v.001q.012.096.007.212a.64.64 0 0 0 .223.495.72.72 0 0 0 .445.16c.353.009.712-.216.707-.67a.63.63 0 0 0-.168-.436c-.147-.152-.372-.221-.6-.289M23.474 16.296l.005.014.003.008.003.007.004.01.002.005a.62.62 0 0 0 .317.333l.014.006h.001l.017.007.01.004.006.002.01.004.007.002.01.003.007.002.01.003.007.002.01.002.008.002.01.002.008.002.008.002.01.002.009.001.01.002h.008l.011.002.01.001.01.001.01.001h.009l.01.001h.01l.012.001h.092l.018-.002.02-.002h.004l.014-.002.005-.001.014-.002.006-.001.013-.003h.005l.037-.01.01-.002.007-.002.011-.003.005-.002.016-.005.012-.005.006-.002.01-.004.005-.002.011-.005.003-.001.013-.006.002-.001a.6.6 0 0 0 .28-.281l.002-.005.005-.01.002-.005.01-.022.001-.002c.173-.411-.03-1-.61-.989-.558-.006-.765.536-.625.942zM12.484 20.29l-.002.001-.018.009-.01.004-.009.004-.005.003-.01.005-.004.002a.6.6 0 0 0-.197.161l-.03.04-.008.013-.008.012-.001.003-.006.01-.002.004-.008.015-.005.008-.003.007-.003.007-.004.009-.003.007-.004.008q0 .004-.003.007 0 .004-.004.01l-.001.004-.004.012-.002.004-.004.013-.002.004-.003.013-.002.004-.003.013v.002l-.004.016-.001.003-.003.015v.003l-.004.015v.005l-.003.014v.005l-.002.014-.001.007-.001.012-.001.012v.008l-.002.012v.049a1 1 0 0 0 .004.1v.003l.005.036v.002l.004.016v.002l.003.017.014.052a.61.61 0 0 0 .356.386l.015.006.01.003.005.003c.408.152.966-.053.958-.623.01-.578-.574-.78-.984-.61M26.72 26.05l.005.012v.002l.007.014a.61.61 0 0 0 .428.358h.002l.037.007.015.002.004.001.018.002.04.004.06.001h.051l.011-.001.01-.001h.01l.012-.002h.007l.015-.003h.004l.018-.003.016-.003h.003l.016-.004h.002l.018-.005.015-.004h.002l.015-.005h.002l.017-.006.012-.005.005-.001.012-.005.003-.002.01-.004.006-.003q.004 0 .01-.004l.006-.003.008-.004.007-.003.006-.003.009-.005.003-.002.011-.007h.002l.012-.008.002-.001a.6.6 0 0 0 .22-.249l.003-.006.004-.008.004-.01.003-.005c.182-.411-.017-1.011-.601-1.002-.569-.01-.775.55-.623.958l.001.004zM16.945 29.043v.02l.001.003.001.016v.004l.002.016v.002l.002.017.001.003.002.016v.002l.004.016v.002l.004.016.004.018v.002l.015.05c.061.179.193.302.35.369l.006.002.01.004.01.004q.003 0 .005.002c.407.152.965-.054.957-.623.01-.579-.575-.782-.985-.61h-.003l-.011.006-.006.003-.009.003-.01.005-.004.002-.014.008a.6.6 0 0 0-.227.2l-.007.012-.002.002-.007.012-.001.003-.008.012v.002l-.006.01-.003.005-.004.008-.003.007-.004.008-.003.007-.003.007-.004.01-.002.005-.007.017-.004.01-.002.006-.003.01-.002.005-.003.013-.002.004q0 .007-.003.013l-.001.003-.004.015v.004l-.003.014-.001.005-.003.013v.003l-.003.016v.003l-.002.016-.001.008-.001.011-.001.01v.01l-.001.01-.001.01v.083M25.419 17.05l-.001.001-.02.009-.009.004-.011.005-.003.002-.014.007a.6.6 0 0 0-.275.289l-.006.015-.001.002-.006.015-.012.034-.004.013-.001.005-.005.016-.004.017v.002l-.007.033v.003l-.006.038a1 1 0 0 0-.005.1v.042l.002.015v.005l.001.014v.005l.004.033v.006l.003.011v.008q.002.005.003.01l.001.008.003.012.001.006.007.029.002.006.002.009.003.009.002.004.004.012.001.005.005.012.001.004.005.012.001.003a.62.62 0 0 0 .352.338l.013.005h.002l.015.006c.405.141.947-.065.942-.624.013-.582-.574-.786-.985-.614M1.426 25.076a.62.62 0 0 0-.556.347.7.7 0 0 0-.096.34.63.63 0 0 0 .198.49.63.63 0 0 0 .484.2.7.7 0 0 0 .347-.096.62.62 0 0 0 .345-.559c.075-.242.133-.503.272-.692.19-.14.452-.198.694-.274a.687.687 0 0 0 .651-.688c.008-.46-.358-.684-.715-.67a.73.73 0 0 0-.431.154.63.63 0 0 0-.228.51v.002a.96.96 0 0 1-.273.665c-.19.139-.45.196-.692.271M26.704 9.853a.62.62 0 0 0 .332.317l.005.002.022.009h.003c.407.152.962-.054.955-.62.011-.583-.577-.785-.987-.612l-.004.002-.015.006-.01.005-.015.007a.6.6 0 0 0-.28.282l-.001.001-.006.012-.001.004-.006.013-.001.002-.005.012-.001.005-.004.01-.002.006-.005.013v.004l-.005.012-.001.005-.003.011-.002.007-.002.01-.002.008-.002.01-.002.008-.002.012v.006l-.003.014v.005l-.003.015v.004a1 1 0 0 0-.005.1v.03l.001.012v.01l.001.01.001.01v.01l.002.012v.007l.002.012.001.007.002.01.001.009.002.01.002.008.002.008q0 .005.002.01l.002.008.002.01.002.008.003.01.002.006q0 .006.003.01l.002.007.004.01q0 .003.002.005z"/>
  </g>
  <defs>
    <clipPath id="a">
      <rect width="32" height="32" fill="#fff" rx="16"/>
    </clipPath>
  </defs>
</svg>
